<?xml version="1.0" encoding="UTF-8"?>
<svg id="Layer_1" xmlns="http://www.w3.org/2000/svg" version="1.1" viewBox="0 0 1000 325">
  <!-- Generator: Adobe Illustrator 29.8.2, SVG Export Plug-In . SVG Version: 2.1.1 Build 3)  -->
  <defs>
    <style>
      .st0 {
        fill: #222a7e;
      }
    </style>
  </defs>
  <g>
    <polygon class="st0" points="169.31 14.2 123.37 124.8 131.02 219.96 219.66 14.2 169.31 14.2"/>
    <polygon class="st0" points="50 61.47 65.75 219.96 113.01 219.96 103.97 61.47 50 61.47"/>
    <path class="st0" d="M315.95,78.71c-8.9-9.2-24.88-20.02-44.23-19.49-36.52,0-61.84,25.94-70.72,81.97-8.77,55.39,8.28,81.65,44.81,81.65h0c43.35-2.08,42.07-46.11,42.07-46.11-3.78,2.04-8.06,2.95-12.77,2.95-15.19,0-21.81-11.27-17.54-38.23,4.29-27.09,14.47-38.29,29.66-38.29,9.67-.44,17.98,4.78,23.35,9.47l-10.48,66.16c-3.75,29.74,10.94,44.32,47.2,41.18l25.1-158.49h-53.72l-2.73,17.24Z"/>
    <path class="st0" d="M897.08,61.47l-2.73,17.24c-8.9-9.2-24.88-20.02-44.23-19.49-36.52,0-61.84,25.94-70.72,81.97-8.77,55.39,8.28,81.65,44.81,81.65h0c43.35-2.08,42.07-46.11,42.07-46.11-3.78,2.04-8.06,2.95-12.77,2.95-15.19,0-21.81-11.27-17.54-38.23,4.29-27.09,14.47-38.29,29.66-38.29,9.67-.44,17.98,4.78,23.35,9.47l-10.48,66.16c-3.75,29.74,10.94,44.32,47.2,41.18l25.1-158.49h-53.72Z"/>
    <polygon class="st0" points="380.05 219.96 433.77 219.96 466.22 15.04 412.51 15.04 380.05 219.96"/>
    <path class="st0" d="M528.8,141.2c4.98-31.44,13.59-38.29,29.66-38.29,1.18,0,2.31.04,3.38.12-.53-16.97-5.64-31.8-20.91-41.97-39.74,6.52-60.96,31-68.74,80.15-9.2,58.08,11.63,81.14,67.35,81.14h0s1.55,0,1.55,0c-16.78-19.66-17.31-49.49-12.3-81.13Z"/>
    <path class="st0" d="M565.38,59.23h-2.72c17.48,19.64,18.1,49.87,13.02,81.95-4.96,31.32-13.29,37.97-29.3,37.97v.02c-1.32,0-2.58-.04-3.76-.14.46,16.78,5.35,31.49,20.03,41.71,40.31-6.1,61.82-30.16,69.63-79.54,9.25-58.4-11.49-81.97-66.91-81.97Z"/>
    <polygon class="st0" points="645.81 219.96 699.53 219.96 716.49 112.82 717.85 61.47 670.91 61.47 645.81 219.96"/>
    <path class="st0" d="M731.33,82.29l-2.89,36.53,38.14-7.22,8.4-53.02c-20.71,1.01-31.95,4.83-43.65,23.71Z"/>
  </g>
  <g>
    <path class="st0" d="M643.17,246.82h7.75l-8.18,51.65v-.17l-5.65,15.82h-4.58l10.66-67.3ZM644.96,309.97l.92-5.82c2.18,3.16,5.94,4.42,10.99,4.42,9,0,15.81-6.22,17.97-19.84,2.2-13.86-2.67-19.94-11.67-19.94-5.05,0-9.2,1.22-12.39,4.38l.83-5.24c3.42-3.78,7.99-5.61,14.1-5.61,14.09,0,20.21,8.36,17.35,26.41-2.83,17.85-11.62,26.31-25.7,26.31-6.28,0-10.21-1.66-12.41-5.07Z"/>
    <path class="st0" d="M701.57,263.05h6.67l-.64,10.87-6.37,40.2h-7.75l8.09-51.07ZM727.13,262.12l-1.15,7.25-14.98,4.42.43-4.49c3.79-3.69,8.06-5.29,15.7-7.18Z"/>
    <path class="st0" d="M728.49,288.74c2.86-18.05,11.63-26.41,25.72-26.41,6.16,0,10.16,1.85,12.37,5.7l-.83,5.23c-2.18-3.22-5.96-4.46-11.06-4.46-9.1,0-15.79,6.09-17.99,19.94-2.16,13.62,2.59,19.84,11.69,19.84,5.09,0,9.28-1.28,12.47-4.5l-.92,5.81c-3.28,3.47-7.77,5.15-14.09,5.15-14.09,0-20.19-8.46-17.37-26.31ZM765.84,298.26l5.58-35.21h7.75l-8.09,51.07h-4.75l-.49-15.85Z"/>
    <path class="st0" d="M797.01,263.05h4.68l.63,15.41-5.65,35.66h-7.75l8.09-51.07ZM817.99,268.69c-3.23,0-7.55.61-10.88,3.98l.65-4.08c4.24-5.2,9.96-6.6,15.06-6.6,10.14,0,14.88,5.02,12.78,18.26l-5.36,33.87h-7.75l4.98-31.46c1.34-8.49.73-13.96-9.48-13.96Z"/>
    <path class="st0" d="M849.1,288.74c2.86-18.05,11.63-26.41,25.72-26.41,6.16,0,10.16,1.85,12.37,5.7l-.83,5.23c-2.18-3.22-5.96-4.46-11.06-4.46-9.1,0-15.79,6.09-17.99,19.94-2.16,13.62,2.59,19.84,11.69,19.84,5.09,0,9.28-1.28,12.47-4.5l-.92,5.81c-3.28,3.47-7.77,5.15-14.09,5.15-14.09,0-20.19-8.46-17.37-26.31ZM886.45,298.26l8.15-51.44h7.75l-10.66,67.3h-4.75l-.49-15.85Z"/>
    <path class="st0" d="M926.59,308.51c2.17,0,3.93-.07,5.37-.26-1.24,3.15-3.39,5.74-7.55,6.58-13.95-.19-17.7-4.22-16.02-14.81h7.72c-.92,5.78.78,8.49,10.48,8.49ZM920.84,275.46c-.87,5.5,2.38,7.32,11.13,9.11,12.08,2.48,16.62,6.12,15.21,15.03-1.54,9.73-4.72,13.91-15.25,14.96,4.54-3.2,6.2-8.84,6.97-13.76l.08-.48c.92-5.81-2.93-7.46-13.38-9.77-11.27-2.48-14.16-6.77-12.78-15.51,1.19-7.51,4.99-11.38,14.68-12.43-4.35,2.93-5.9,8.02-6.66,12.84h0ZM927.45,268.98c1.17-3.27,3.38-5.95,8.25-6.63,12.92.37,16.39,4.49,14.69,15.21h-7.72c1.13-6.5-1.32-8.91-9.71-8.91-2.22,0-4.03.1-5.52.33h0Z"/>
  </g>
</svg>